<svg width="500" height="320" viewBox="0 0 500 320" xmlns="http://www.w3.org/2000/svg">
  <path d="M20,180 
           C80,100 180,40 320,40 
           C380,40 420,70 390,130 
           C360,190 250,220 130,250 
           C120,252 140,230 160,215 
           C240,160 320,110 350,90 
           C370,75 330,80 280,95 
           C180,125 80,160 20,180 Z" 
        fill="#4ECDC4"/>

  <path d="M130,260 
           C200,210 300,170 420,160 
           L400,110 
           L500,165 
           L400,220 
           L420,180 
           C320,190 220,230 130,290 
           C110,305 110,275 130,260 Z" 
        fill="#023e58"/>
</svg>
